<?xml version="1.0" encoding="UTF-8"?>
<svg width="220px" height="40px" viewBox="0 0 220 40" version="1.1" xmlns="http://www.w3.org/2000/svg" xmlns:xlink="http://www.w3.org/1999/xlink">
    <g id="atlanse-logo/white" stroke="none" stroke-width="1" fill="none" fill-rule="evenodd">
        <g fill="#FFFFFF">
            <g id="Group">
                <polygon id="Fill-1" points="4.9881944 39.5558382 9.3984514 39.5558382 21.7664975 18.2332948 19.5611367 14.4316763"></polygon>
                <path d="M16.3695425,8.92887861 L0.258840692,36.7046012 C-0.476357002,37.9716532 0.442582043,39.5559306 1.91251285,39.5559306 C2.59474843,39.5559306 3.22541565,39.1936185 3.5664173,38.6054104 L18.574671,12.7307283 L16.3695425,8.92887861 Z" id="Fill-2"></path>
                <polygon id="Fill-5" points="34.2683427 28.957341 19.6954003 3.83294798 17.4900395 7.63456647 29.8580857 28.957341"></polygon>
                <path d="M36.24146,28.957341 L40.651717,28.957341 L24.5407829,1.1816185 C23.8058175,-0.085433526 21.9681717,-0.085433526 21.2332063,1.18184971 C20.8919723,1.76982659 20.8919723,2.49445087 21.2332063,3.08242775 L36.24146,28.957341 Z" id="Fill-7"></path>
                <polygon id="Fill-9" points="14.497843 34.0532948 43.64396 34.0532948 41.4388315 30.2516763 16.7029715 30.2516763"></polygon>
                <path d="M43.5279544,35.7541965 L13.5112147,35.7539653 L11.3060862,39.555815 L43.5279544,39.555815 C44.9981175,39.555815 45.9168242,37.9717688 45.1818588,36.7044855 C44.8406249,36.1162775 44.21019,35.7541965 43.5279544,35.7541965" id="Fill-11"></path>
            </g>
            <g id="Group-2" transform="translate(52.000000, 16.000000)">
                <path d="M5.10228221,8.98446243 L7.49533328,3.33683237 L9.84982422,8.98446243 L5.10228221,8.98446243 Z M6.22168748,0.590242775 L0.29713229,14.0364855 L2.97961664,14.0364855 L4.17614217,11.193711 L10.7761965,11.193711 L11.9727221,14.0364855 L14.7513745,14.0364855 L8.90417183,0.590242775 L6.22168748,0.590242775 Z" id="Fill-13"></path>
                <polygon id="Fill-15" points="13.5162191 2.87616185 17.7234547 2.87616185 17.7234547 14.0363931 20.3288188 14.0363931 20.3288188 2.87616185 24.5355898 2.87616185 24.5355898 0.590381503 13.5162191 0.590381503"></polygon>
                <polygon id="Fill-17" points="28.954999 0.590312139 26.3686827 0.590312139 26.3686827 14.0363237 34.7826893 14.0363237 34.7826893 11.7123931 28.954999 11.7123931"></polygon>
                <path d="M40.0316524,8.98446243 L42.4249357,3.33683237 L44.7789621,8.98446243 L40.0316524,8.98446243 Z M41.1510577,0.590242775 L35.2262702,14.0364855 L37.9087545,14.0364855 L39.1052801,11.193711 L45.7053344,11.193711 L46.90186,14.0364855 L49.6809769,14.0364855 L43.833542,0.590242775 L41.1510577,0.590242775 Z" id="Fill-19"></path>
                <polygon id="Fill-21" points="60.7383502 9.868 53.7717423 0.590312139 51.3208511 0.590312139 51.3208511 14.0363237 53.8490949 14.0363237 53.8490949 4.77759538 60.7964227 14.0363237 63.247314 14.0363237 63.247314 0.590312139 60.7383502 0.590312139"></polygon>
                <path d="M74.1217822,6.91010405 C73.5361792,6.64073988 72.7868119,6.37183815 71.8734478,6.10316763 C71.217461,5.91126012 70.6992221,5.73530636 70.3201249,5.57507514 C69.9403308,5.41484393 69.6255779,5.20998844 69.3744725,4.96027746 C69.1235993,4.71056647 68.9979305,4.40027746 68.9979305,4.02848555 C68.9979305,3.61877457 69.1781875,3.29854335 69.5384692,3.06802312 C69.8982863,2.83750289 70.387489,2.72212717 71.0051479,2.72212717 C71.5582303,2.72212717 72.1984214,2.83750289 72.925489,3.06802312 C73.6523242,3.29854335 74.3628992,3.62524855 75.0576784,4.0476763 L76.0999634,1.80027746 C75.4307361,1.36536416 74.6683605,1.01946821 73.8130689,0.763052023 C72.9570804,0.507098266 72.0922649,0.378774566 71.217461,0.378774566 C70.2139684,0.378774566 69.3289437,0.53900578 68.5637806,0.859236994 C67.7981529,1.17923699 67.2062781,1.63079769 66.7883885,2.21345665 C66.3702666,2.79611561 66.1612056,3.47796532 66.1612056,4.25923699 C66.1612056,5.10409249 66.3670145,5.78617341 66.7788646,6.30478613 C67.1902501,6.82316763 67.6859568,7.21091329 68.2645911,7.46686705 C68.84369,7.72328324 69.589573,7.98547977 70.5034016,8.2543815 C71.1723967,8.44675145 71.6999272,8.61946821 72.0859931,8.77299422 C72.4718267,8.92698266 72.7905285,9.12860116 73.0414016,9.37831214 C73.2922748,9.62802312 73.4174791,9.94501734 73.4174791,10.3290636 C73.4174791,10.8028208 73.2112056,11.1776185 72.7998201,11.4525318 C72.38797,11.7283699 71.822344,11.8659422 71.1017806,11.8659422 C70.3682089,11.8659422 69.5772616,11.686289 68.7277773,11.3279075 C67.8785252,10.9697572 67.1128975,10.476578 66.4315911,9.84883237 L65.3505137,12.038659 C66.0968613,12.6916069 66.9716652,13.2136879 67.9751578,13.6042081 C68.9786504,13.9949595 70.0079272,14.1898728 71.0627558,14.1898728 C72.0662484,14.1898728 72.9570804,14.030104 73.7357163,13.7096416 C74.5138876,13.3898728 75.1252748,12.9258266 75.5689486,12.3172717 C76.013087,11.7091792 76.2349239,10.9951908 76.2349239,10.1750751 C76.2349239,9.3177341 76.029115,8.62617341 75.6170326,8.10062428 C75.2054148,7.576 74.7071529,7.17877457 74.1217822,6.91010405" id="Fill-23"></path>
                <polygon id="Fill-25" points="81.2715043 11.7888324 81.2715043 8.40802312 87.8329985 8.40802312 87.8329985 6.16085549 81.2715043 6.16085549 81.2715043 2.83738728 88.585618 2.83738728 88.585618 0.590219653 78.6856526 0.590219653 78.6856526 14.0364624 88.817211 14.0364624 88.817211 11.7888324"></polygon>
            </g>
            <path d="M160.553711,20.8417969 C160.553711,22.0839906 160.13184,23.0361295 159.288086,23.6982422 C158.444332,24.3603549 157.249031,24.6914062 155.702148,24.6914062 L153.71582,24.6914062 L153.71582,30 L152.819336,30 L152.819336,17.1503906 L155.96582,17.1503906 C159.024429,17.1503906 160.553711,18.3808471 160.553711,20.8417969 Z M153.71582,23.9179688 L155.482422,23.9179688 C156.929695,23.9179688 157.975583,23.6792016 158.620117,23.2016602 C159.264652,22.7241187 159.586914,21.9492241 159.586914,20.8769531 C159.586914,19.8867138 159.28223,19.1528344 158.672852,18.675293 C158.063474,18.1977515 157.120124,17.9589844 155.842773,17.9589844 L153.71582,17.9589844 L153.71582,23.9179688 Z M171.030273,25.2099609 C171.030273,26.7685625 170.652348,27.9858355 169.896484,28.8618164 C169.140621,29.7377973 168.097663,30.1757812 166.767578,30.1757812 C165.929683,30.1757812 165.191409,29.9736348 164.552734,29.5693359 C163.914059,29.165037 163.424806,28.5849647 163.084961,27.8291016 C162.745115,27.0732384 162.575195,26.2002003 162.575195,25.2099609 C162.575195,23.6513594 162.953121,22.4370161 163.708984,21.5668945 C164.464848,20.696773 165.501947,20.2617188 166.820312,20.2617188 C168.132819,20.2617188 169.162594,20.7026323 169.909668,21.5844727 C170.656742,22.466313 171.030273,23.674797 171.030273,25.2099609 Z M163.489258,25.2099609 C163.489258,26.5224675 163.777829,27.546383 164.35498,28.2817383 C164.932132,29.0170935 165.748042,29.3847656 166.802734,29.3847656 C167.857427,29.3847656 168.673337,29.0170935 169.250488,28.2817383 C169.82764,27.546383 170.116211,26.5224675 170.116211,25.2099609 C170.116211,23.891595 169.82471,22.8691443 169.241699,22.1425781 C168.658688,21.416012 167.839849,21.0527344 166.785156,21.0527344 C165.730463,21.0527344 164.917483,21.4145472 164.346191,22.1381836 C163.774899,22.86182 163.489258,23.8857356 163.489258,25.2099609 Z M177.4375,20.2617188 C177.841799,20.2617188 178.275388,20.302734 178.738281,20.3847656 L178.571289,21.2197266 C178.17285,21.1201167 177.759768,21.0703125 177.332031,21.0703125 C176.517574,21.0703125 175.849612,21.4160122 175.328125,22.1074219 C174.806638,22.7988316 174.545898,23.6718697 174.545898,24.7265625 L174.545898,30 L173.675781,30 L173.675781,20.4462891 L174.414062,20.4462891 L174.501953,22.1689453 L174.563477,22.1689453 C174.956057,21.4658168 175.374998,20.9721694 175.820312,20.6879883 C176.265627,20.4038072 176.804684,20.2617188 177.4375,20.2617188 Z M183.203125,29.4023438 C183.753909,29.4023438 184.234373,29.3554692 184.644531,29.2617188 L184.644531,29.9648438 C184.222654,30.1054695 183.736331,30.1757812 183.185547,30.1757812 C182.341793,30.1757812 181.71924,29.9501976 181.317871,29.4990234 C180.916502,29.0478493 180.71582,28.338872 180.71582,27.3720703 L180.71582,21.2021484 L179.300781,21.2021484 L179.300781,20.6923828 L180.71582,20.296875 L181.155273,18.1347656 L181.603516,18.1347656 L181.603516,20.4462891 L184.407227,20.4462891 L184.407227,21.2021484 L181.603516,21.2021484 L181.603516,27.2490234 C181.603516,27.981449 181.732421,28.5234357 181.990234,28.875 C182.248048,29.2265643 182.652341,29.4023438 183.203125,29.4023438 Z M187.46582,20.4462891 L187.46582,26.6337891 C187.46582,27.5947314 187.667967,28.2934548 188.072266,28.7299805 C188.476565,29.1665061 189.103511,29.3847656 189.953125,29.3847656 C191.089849,29.3847656 191.926267,29.0976591 192.462402,28.5234375 C192.998538,27.9492159 193.266602,27.0146549 193.266602,25.7197266 L193.266602,20.4462891 L194.12793,20.4462891 L194.12793,30 L193.389648,30 L193.231445,28.6816406 L193.178711,28.6816406 C192.557614,29.6777394 191.453133,30.1757812 189.865234,30.1757812 C187.691395,30.1757812 186.604492,29.0127069 186.604492,26.6865234 L186.604492,20.4462891 L187.46582,20.4462891 Z M204.780273,20.4462891 L204.780273,21.0527344 L202.802734,21.1757812 C203.330081,21.8320345 203.59375,22.5527304 203.59375,23.3378906 C203.59375,24.2578171 203.287601,25.0034151 202.675293,25.574707 C202.062985,26.145999 201.241216,26.4316406 200.209961,26.4316406 C199.776365,26.4316406 199.471681,26.4140627 199.295898,26.3789062 C198.950194,26.5605478 198.686524,26.7744128 198.504883,27.0205078 C198.323241,27.2666028 198.232422,27.5273424 198.232422,27.8027344 C198.232422,28.1074234 198.348143,28.3300774 198.57959,28.4707031 C198.811036,28.6113288 199.199216,28.6816406 199.744141,28.6816406 L201.414062,28.6816406 C202.451177,28.6816406 203.245114,28.8911112 203.795898,29.3100586 C204.346682,29.729006 204.62207,30.3486287 204.62207,31.1689453 C204.62207,32.1767629 204.213383,32.9545871 203.395996,33.5024414 C202.578609,34.0502957 201.41407,34.3242188 199.902344,34.3242188 C198.701166,34.3242188 197.770999,34.0927758 197.111816,33.6298828 C196.452633,33.1669899 196.123047,32.5224651 196.123047,31.6962891 C196.123047,31.0400358 196.326658,30.4951194 196.733887,30.0615234 C197.141115,29.6279275 197.693356,29.332032 198.390625,29.1738281 C198.103514,29.0507806 197.873536,28.876466 197.700684,28.6508789 C197.527831,28.4252918 197.441406,28.1660171 197.441406,27.8730469 C197.441406,27.2343718 197.848629,26.6718774 198.663086,26.1855469 C198.106443,25.9570301 197.672853,25.598147 197.362305,25.1088867 C197.051756,24.6196265 196.896484,24.0585969 196.896484,23.4257812 C196.896484,22.4706983 197.199704,21.7045927 197.806152,21.1274414 C198.412601,20.5502901 199.23144,20.2617188 200.262695,20.2617188 C200.889652,20.2617188 201.375975,20.3232416 201.72168,20.4462891 L204.780273,20.4462891 Z M197.045898,31.6171875 C197.045898,32.9296941 198.021475,33.5859375 199.972656,33.5859375 C202.480481,33.5859375 203.734375,32.7861408 203.734375,31.1865234 C203.734375,30.6123018 203.538088,30.1962904 203.145508,29.9384766 C202.752928,29.6806628 202.117192,29.5517578 201.238281,29.5517578 L199.673828,29.5517578 C197.921866,29.5517578 197.045898,30.2402275 197.045898,31.6171875 Z M197.775391,23.4257812 C197.775391,24.1640662 197.999509,24.7368144 198.447754,25.144043 C198.895998,25.5512716 199.495113,25.7548828 200.245117,25.7548828 C201.041996,25.7548828 201.65283,25.5527364 202.077637,25.1484375 C202.502444,24.7441386 202.714844,24.158207 202.714844,23.390625 C202.714844,22.5761678 202.496584,21.9653341 202.060059,21.5581055 C201.623533,21.1508769 201.012699,20.9472656 200.227539,20.9472656 C199.465817,20.9472656 198.866701,21.1655252 198.430176,21.6020508 C197.99365,22.0385764 197.775391,22.6464805 197.775391,23.4257812 Z M212.541016,30 L212.321289,28.4882812 L212.250977,28.4882812 C211.770505,29.1035187 211.276858,29.5385729 210.77002,29.793457 C210.263181,30.0483411 209.664066,30.1757812 208.972656,30.1757812 C208.035152,30.1757812 207.305667,29.9355493 206.78418,29.4550781 C206.262693,28.974607 206.001953,28.3095746 206.001953,27.4599609 C206.001953,26.5283157 206.390133,25.8046901 207.166504,25.2890625 C207.942875,24.7734349 209.066399,24.5009767 210.537109,24.4716797 L212.356445,24.4189453 L212.356445,23.7861328 C212.356445,22.8779251 212.171877,22.1923851 211.802734,21.7294922 C211.433592,21.2665992 210.838871,21.0351562 210.018555,21.0351562 C209.133785,21.0351562 208.216802,21.2812475 207.267578,21.7734375 L206.942383,21.0175781 C207.991216,20.5253882 209.028315,20.2792969 210.053711,20.2792969 C211.102544,20.2792969 211.886228,20.5517551 212.404785,21.0966797 C212.923342,21.6416043 213.182617,22.4912052 213.182617,23.6455078 L213.182617,30 L212.541016,30 Z M209.025391,29.3847656 C210.044927,29.3847656 210.849118,29.0932646 211.437988,28.5102539 C212.026858,27.9272432 212.321289,27.1171927 212.321289,26.0800781 L212.321289,25.1396484 L210.651367,25.2099609 C209.309564,25.2744144 208.35303,25.4838849 207.781738,25.8383789 C207.210446,26.1928729 206.924805,26.7451134 206.924805,27.4951172 C206.924805,28.0927764 207.107908,28.5571273 207.474121,28.8881836 C207.840334,29.2192399 208.357419,29.3847656 209.025391,29.3847656 Z M217.146484,30 L216.276367,30 L216.276367,16.3242188 L217.146484,16.3242188 L217.146484,30 Z" id="Portugal"></path>
        </g>
    </g>
</svg>